<?xml version="1.0" encoding="UTF-8"?>
<!DOCTYPE svg PUBLIC "-//W3C//DTD SVG 1.1//EN" "http://www.w3.org/Graphics/SVG/1.1/DTD/svg11.dtd">
<!-- Creator: CorelDRAW X8 -->
<svg xmlns="http://www.w3.org/2000/svg" xml:space="preserve" width="75.5293mm" height="37.2104mm" version="1.1" style="shape-rendering:geometricPrecision; text-rendering:geometricPrecision; image-rendering:optimizeQuality; fill-rule:evenodd; clip-rule:evenodd"
viewBox="0 0 3969 1955"
 xmlns:xlink="http://www.w3.org/1999/xlink">
 <defs>
  <style type="text/css">
   <![CDATA[
    .fil0 {fill:#F4AF67;fill-rule:nonzero}
    .fil4 {fill:#F8DF26;fill-rule:nonzero}
    .fil3 {fill:#E3DAB7;fill-rule:nonzero}
    .fil2 {fill:#B49965;fill-rule:nonzero}
    .fil1 {fill:#5C4037;fill-rule:nonzero}
   ]]>
  </style>
 </defs>
 <g id="Layer_x0020_1">
  <metadata id="CorelCorpID_0Corel-Layer"/>
  <g id="_1649891578496">
   <path class="fil0" d="M17 1592c0,0 -37,-172 250,-313 287,-141 536,-358 648,-556 220,-387 889,-852 1731,-665 843,187 735,259 951,166 70,-30 146,-21 211,14 217,116 183,437 -51,515 -48,17 -107,33 -174,44 -196,34 -197,382 -575,677 -378,295 -1145,621 -1848,385 -703,-235 -744,11 -921,-14 -177,-25 -222,-253 -222,-253z"/>
   <path class="fil1" d="M3937 465c-4,-5 -9,-10 -13,-13 -5,-4 -12,2 -8,8 1,1 2,3 3,5 -2,9 -4,18 -6,27 -3,-3 -6,-6 -9,-10 -5,-5 -13,3 -9,8 5,8 9,15 13,22 -5,17 -11,34 -19,50 0,-3 -1,-6 -2,-8 1,-2 2,-3 2,-5 3,-5 -3,-11 -8,-11 -1,-2 -1,-4 -2,-6 -3,-7 -12,-4 -10,3 1,4 2,8 2,12 -7,10 -15,20 -23,28 -2,-5 -5,-10 -8,-15 -3,-4 -9,-1 -7,3 2,7 4,14 6,21 -5,5 -11,11 -16,15 -2,-6 -4,-11 -6,-17 -2,-6 -11,-2 -9,3 1,8 3,15 4,23 -8,6 -15,11 -23,16 -1,-5 -2,-11 -3,-16 -2,-7 -13,-7 -12,1 1,8 1,15 2,23 -8,5 -15,9 -23,13 -1,-7 -3,-14 -5,-20 -1,-6 -9,-3 -9,2 0,8 1,16 2,24 -7,3 -14,6 -21,9 -1,-7 -3,-13 -5,-18 -2,-6 -11,-4 -10,2 1,7 2,14 3,20 -7,3 -14,6 -21,8 -1,-9 -3,-18 -4,-27 -2,-6 -12,-4 -11,2 1,10 1,20 1,30 -9,3 -19,6 -29,9 -1,-9 -2,-19 -4,-28 -1,-6 -9,-5 -9,1 0,11 0,21 0,32 -7,2 -14,4 -20,6 -2,-15 -4,-30 -6,-44 -1,-6 -9,-5 -9,0 2,16 2,32 2,48 -4,1 -9,2 -13,4 -1,-22 -3,-45 -6,-67 -1,-7 -11,-6 -11,1 2,23 3,47 2,70 -4,2 -9,3 -13,5 -2,-31 -7,-62 -13,-91 -1,-5 -9,-5 -8,1 3,32 4,64 4,96 -4,1 -9,3 -13,5 -2,-39 -10,-77 -22,-113 -2,-7 -12,-3 -10,4 10,40 15,77 15,116 -7,3 -13,6 -20,9 -2,-22 -6,-46 -18,-62 -1,-1 -3,-1 -3,0 -3,23 4,46 7,69 -11,6 -21,12 -31,19 -2,-4 -4,-8 -6,-11 -2,-3 -7,-2 -7,2 1,5 2,11 4,16 -28,21 -52,47 -66,80 -1,3 3,5 4,3 12,-16 25,-30 38,-42 2,7 4,15 5,22 -6,8 -12,16 -17,25 0,0 0,0 0,-1 -3,-2 -8,-1 -8,3 1,3 2,6 3,9 -9,19 -12,40 -10,64 1,3 5,4 6,0 3,-14 6,-27 11,-38 0,1 0,2 1,3 2,9 3,18 5,28 -12,20 -24,41 -37,63 -3,-11 -10,-23 -19,-30 -4,-3 -9,0 -7,5 2,7 5,14 7,21 2,8 3,16 5,23 0,2 1,3 2,4 -3,4 -6,9 -8,13 -4,-20 -15,-40 -28,-55 -5,-6 -13,0 -9,6 14,23 16,47 22,73 0,0 0,1 0,2 -3,5 -6,11 -10,17 -3,-36 -24,-75 -42,-102 -3,-4 -10,-1 -8,4 8,21 16,43 23,65 5,19 6,39 14,56 -6,10 -13,21 -19,32 4,-33 -10,-70 -27,-101 2,-6 4,-12 5,-17 1,-5 -4,-7 -7,-4 -2,2 -4,5 -6,7 -5,-9 -11,-17 -16,-25 -3,-5 -10,1 -7,6 5,10 9,20 13,30 -10,12 -19,26 -29,39 -8,-10 -17,-20 -25,-27 -4,-4 -11,2 -7,6 9,11 17,23 23,35 -8,13 -16,25 -25,38 -9,-11 -18,-22 -29,-31 -5,-3 -11,2 -8,6 9,14 18,27 26,40 -7,10 -14,19 -22,29 -10,-11 -22,-20 -35,-26 -2,-1 -5,2 -4,4 9,12 19,23 28,34 -12,13 -25,26 -38,38 -11,-13 -23,-25 -37,-37 -4,-3 -11,2 -7,7 11,13 22,27 32,42 -8,7 -16,15 -25,23 -16,-22 -34,-40 -50,-52 -4,-3 -10,1 -7,6 15,19 30,38 43,58 -9,8 -19,16 -28,24 -17,-27 -38,-50 -62,-67 -3,-3 -9,2 -6,6 20,23 39,46 55,71 -4,4 -8,7 -12,10 -5,5 0,13 6,9 4,-2 8,-5 12,-8 3,6 6,11 9,17 15,32 21,65 27,99 -14,12 -28,23 -42,35 -8,-76 -48,-146 -106,-195 -4,-4 -8,2 -5,5 55,59 83,125 96,202 -11,8 -22,17 -33,25 -6,-66 -43,-138 -83,-188 -3,-3 -8,0 -6,5 18,34 36,67 50,103 11,29 17,59 27,88 -11,8 -22,16 -34,24 1,0 1,-1 1,-2 -2,-67 -36,-141 -81,-190 -4,-4 -10,2 -7,7 19,30 39,60 52,94 12,30 17,61 26,91 0,3 3,4 5,4 -13,8 -26,17 -39,26 3,-69 -43,-146 -89,-190 -4,-4 -10,2 -7,6 26,32 48,67 62,106 10,29 12,59 17,88 -10,7 -20,13 -31,20 -12,-70 -51,-139 -96,-192 -5,-5 -13,0 -9,6 41,62 66,125 92,194 -11,7 -22,13 -34,20 -6,-67 -57,-140 -103,-182 -4,-4 -11,2 -7,6 24,32 48,64 65,100 13,27 19,57 30,85 -28,16 -56,31 -85,46 -20,-69 -73,-145 -133,-181 -3,-2 -6,2 -4,4 23,30 49,56 70,87 21,31 35,65 51,98 -13,7 -27,14 -41,21 -28,-70 -74,-141 -128,-191 -4,-4 -10,2 -7,6 42,64 82,126 119,192 -13,6 -26,13 -39,18 -28,-72 -76,-144 -132,-196 -4,-4 -11,2 -7,6 46,65 85,129 123,198 -13,6 -26,11 -40,17 -30,-73 -77,-146 -131,-202 -4,-4 -10,2 -7,6 42,68 83,134 123,202 -15,6 -30,13 -46,19 -29,-73 -67,-140 -116,-202 -4,-4 -10,0 -7,5 43,64 80,131 110,202 -12,5 -25,9 -37,14 -33,-76 -80,-148 -133,-212 -4,-5 -11,0 -8,6 49,68 89,137 126,211 -17,6 -34,12 -52,18 -42,-72 -85,-143 -130,-212 -3,-5 -10,0 -7,5 39,71 80,142 123,212 -18,6 -37,11 -55,17 -13,-33 -34,-64 -52,-95 -23,-42 -47,-83 -72,-124 -3,-5 -12,-1 -9,4 21,41 41,81 63,121 18,32 33,68 55,98 -12,4 -25,8 -37,11 -43,-75 -88,-148 -136,-219 -4,-5 -11,0 -8,6 40,73 83,146 129,217 -17,4 -34,9 -51,13 -18,-35 -45,-66 -69,-97 -29,-39 -58,-77 -89,-114 -4,-4 -11,0 -8,6 26,40 55,78 84,117 22,30 43,64 70,91 -17,4 -35,8 -53,12 -60,-76 -130,-148 -199,-215 -4,-3 -10,2 -7,6 60,72 123,147 191,212 -15,3 -29,6 -44,8 -99,-40 -162,-107 -217,-198 -2,-4 -7,-1 -5,3 29,89 106,162 193,200 -25,4 -49,8 -73,11 -33,-28 -67,-54 -96,-87 -31,-36 -54,-77 -80,-116 -2,-3 -6,0 -5,3 25,73 85,156 154,204 -13,1 -26,3 -39,4 -77,-47 -135,-105 -173,-192 -2,-4 -7,-2 -6,2 24,77 77,149 146,193 -20,1 -40,3 -60,4 -74,-45 -115,-109 -147,-189 -2,-5 -9,-4 -8,1 11,78 61,144 125,189 -22,1 -43,1 -64,1 -18,-12 -36,-25 -51,-41 -31,-30 -54,-66 -72,-105 -2,-6 -11,-3 -9,3 17,52 50,107 96,143 -13,0 -26,-1 -38,-1 -22,-14 -44,-25 -63,-43 -28,-26 -51,-59 -67,-95 -2,-5 -11,-3 -9,3 16,47 50,101 95,132 -6,0 -12,0 -17,-1 -26,-11 -51,-20 -72,-41 -27,-26 -45,-60 -51,-97 -1,-6 -11,-6 -10,1 4,49 34,103 78,132 -12,-1 -24,-2 -35,-4 -13,-10 -26,-19 -38,-31 -21,-23 -39,-48 -52,-76 -3,-5 -11,-2 -9,3 13,34 34,72 63,99 -9,-2 -17,-3 -25,-4 -12,-9 -28,-13 -40,-23 -18,-16 -28,-36 -37,-58 -2,-5 -10,-4 -9,2 2,24 15,45 32,62 2,3 5,5 8,8 -11,-2 -22,-4 -33,-7 -11,-7 -22,-14 -30,-26 -15,-18 -21,-39 -28,-60 -2,-4 -7,-3 -7,1 -1,23 12,54 31,77 -35,-9 -70,-19 -104,-30 -416,-140 -606,-111 -725,-69 -23,8 -43,16 -62,24 -29,12 -55,23 -82,28 -25,-16 -53,-23 -75,-45 -26,-26 -43,-58 -49,-94 -1,-5 -10,-5 -9,1 4,51 42,122 96,141 -6,0 -12,0 -18,-1 -9,-1 -17,-3 -25,-6 1,-1 1,-4 -1,-5 -23,-17 -46,-31 -64,-54 -19,-27 -26,-56 -30,-87 -1,-5 -9,-6 -9,-1 -6,41 14,89 46,120 -96,-67 -125,-206 -126,-208l0 0c0,-2 -31,-162 242,-296 287,-142 538,-357 655,-563 119,-211 353,-413 625,-541 236,-111 616,-221 1089,-116 335,74 522,131 634,165 173,53 191,59 327,0 62,-26 131,-22 197,13 81,44 131,124 136,214zm-3 60c-2,-5 -5,-9 -8,-14 2,-8 3,-16 4,-24 2,6 2,13 6,18 0,7 -1,13 -2,20zm-11 44c-6,17 -13,34 -22,49 -1,-8 -3,-17 -4,-25 0,-1 0,-2 -1,-3 9,-15 16,-31 22,-47 2,8 3,17 5,26zm-44 14c-5,9 -11,18 -17,27 -1,-5 -3,-9 -4,-14 6,-7 13,-16 19,-24 0,4 1,7 2,11zm6 59c-6,9 -13,17 -20,25 2,-11 2,-22 1,-34 6,-6 11,-13 16,-20 0,10 0,20 3,29zm-37 -14c-5,5 -9,11 -14,16 -1,-8 -3,-15 -5,-22 6,-4 11,-9 16,-13 1,4 2,8 2,12 1,2 1,5 1,7zm4 51c-5,5 -10,9 -15,14 1,-10 1,-20 0,-29 4,-4 8,-8 11,-11 0,7 0,14 1,21 0,3 2,4 3,5zm-34 -20c-7,6 -14,11 -22,16 -1,-9 -2,-19 -3,-28 7,-5 15,-9 22,-14 1,8 2,17 3,26zm1 47c-8,5 -15,10 -24,14 2,-8 2,-17 2,-26 7,-5 14,-9 21,-15 0,9 0,18 1,27zm-42 -19c-5,3 -11,6 -16,9 0,-1 0,-1 0,-2 -1,-10 -3,-19 -4,-29 7,-3 13,-6 20,-10 0,6 1,12 1,17 0,5 0,10 -1,15zm0 42c-4,2 -8,4 -12,5 -1,-7 -1,-14 -2,-21 3,-2 7,-3 10,-5 1,-1 2,-1 4,-2 -1,8 -1,15 0,23zm-32 -29c0,1 0,2 0,3 -6,2 -11,4 -16,6 -1,-10 -3,-20 -5,-31 6,-2 12,-4 18,-7 1,10 2,19 3,29zm2 41c-6,2 -12,3 -19,5 1,-6 1,-13 1,-19 6,-2 11,-4 17,-7 0,7 0,14 1,21zm-57 -19c0,-2 0,-3 0,-4 0,-9 0,-18 -1,-27 7,-2 14,-5 20,-7 1,10 1,21 1,31 -7,3 -13,5 -20,7zm20 30c-8,2 -17,5 -25,7 3,-6 4,-13 4,-20 7,-2 14,-4 21,-6 0,6 0,13 0,19zm-63 -19c0,-10 0,-20 -1,-29 9,-3 18,-6 28,-8 -1,8 -1,16 -2,25 0,2 0,4 0,6 -8,2 -16,4 -25,6zm23 30c-8,2 -17,4 -26,6 2,-6 2,-13 3,-19 7,-2 15,-4 22,-6 -1,7 -1,13 1,19zm-56 -23c0,0 -1,1 -1,1 0,-9 0,-18 -1,-27 6,-2 12,-4 18,-6 0,5 0,9 0,13 0,6 -1,11 -1,16 -5,1 -10,2 -15,3zm13 33c-6,1 -11,2 -16,3 1,-6 1,-12 2,-18 5,-1 9,-2 14,-3 0,6 0,12 0,18zm-42 -25c0,-8 0,-17 0,-25 4,-2 9,-3 13,-5 0,4 0,8 0,12 0,5 -1,10 -1,15 -4,1 -8,2 -12,3zm9 32c-4,0 -8,1 -11,2 0,-6 0,-11 1,-17 3,-1 7,-2 11,-3 0,6 -1,12 -1,18zm-36 -24c0,-8 0,-16 0,-24 4,-2 8,-3 12,-4 -1,8 -1,16 -1,25 -4,1 -7,2 -11,3zm8 29c-3,1 -7,2 -10,3 1,-5 1,-10 1,-15 4,-1 7,-2 10,-3 0,5 -1,10 -1,15zm-39 -18c0,-8 0,-16 0,-23 5,-2 9,-4 13,-5 0,7 0,15 0,23 -4,2 -9,3 -13,5zm13 28c-6,2 -12,5 -17,8 1,-6 2,-13 3,-19 4,-2 9,-4 14,-5 0,5 0,10 0,16zm-48 -13c0,-6 0,-13 -1,-19 0,-1 0,-2 0,-3 7,-3 13,-6 20,-9 -1,8 -1,15 -1,23 -6,3 -12,6 -18,8zm16 30c-5,4 -11,9 -17,13 2,-8 2,-17 2,-27 5,-2 11,-5 17,-8 -1,8 -1,15 -2,22zm-49 -10c-2,-7 -4,-13 -7,-19 8,-5 17,-10 25,-15 0,7 0,15 0,23 -7,3 -12,7 -18,11zm17 37c-3,3 -6,6 -8,9 -1,-10 -3,-20 -5,-31 4,-3 8,-6 13,-9 -1,11 -1,21 0,31zm-31 -27c-7,5 -13,10 -19,16 -2,-6 -5,-11 -7,-17 -1,0 -1,-1 -1,-1 7,-7 14,-13 22,-18 2,6 4,13 5,20zm4 18c2,12 2,24 3,37 -4,4 -7,9 -11,13 0,-2 -1,-5 -1,-8 -2,-9 -5,-18 -8,-26 5,-6 11,-12 16,-17 1,0 1,1 1,1zm-23 50c1,6 2,12 3,18 -3,3 -5,7 -7,11 -3,-11 -7,-21 -12,-30 4,-7 8,-13 12,-20 1,7 3,14 4,21zm-162 294c3,-30 -10,-63 -28,-90 8,-13 16,-26 22,-39 2,7 4,13 6,19 7,22 8,46 18,66 1,3 5,4 8,3 -9,14 -17,27 -26,41zm-15 17c0,1 1,1 2,2 -6,8 -11,16 -17,23 0,-21 -13,-44 -23,-63 -3,-7 -8,-14 -12,-21 8,-11 17,-21 25,-32 2,5 4,11 6,16 9,24 9,51 19,75zm-38 56c-3,-20 -20,-42 -30,-56 -5,-7 -10,-14 -16,-21 7,-7 14,-15 21,-24 4,7 7,13 10,20 10,21 14,46 28,64 -4,6 -8,11 -13,17zm-56 68c-1,-22 -13,-45 -23,-64 -5,-10 -11,-19 -17,-28 13,-13 26,-26 38,-40 5,6 9,12 13,18 12,18 18,46 34,61 -14,17 -29,35 -45,53zm-44 47c4,-32 -12,-71 -34,-105 9,-7 17,-15 25,-22 5,6 8,13 12,20 12,23 15,52 29,73 -10,11 -21,23 -32,34zm-42 40c-3,-38 -16,-77 -37,-111 10,-7 20,-14 30,-22 2,4 4,8 6,12 14,27 19,60 36,84 0,1 1,2 2,2 -12,11 -24,23 -37,35zm746 -1178c-72,-39 -154,-44 -224,-14 -125,54 -135,51 -305,-1 -112,-34 -300,-91 -636,-166 -482,-107 -869,5 -1109,118 -278,131 -517,338 -639,554 -112,197 -364,413 -642,550 -293,144 -260,321 -258,330 2,12 50,239 235,265 57,9 102,-10 153,-31 118,-50 280,-118 765,45 168,56 349,83 537,81 1,0 1,0 1,0 2,0 3,0 4,0 60,-1 120,-5 181,-12 2,1 5,2 7,3 4,1 7,-1 8,-4 104,-12 210,-33 317,-62 54,-14 107,-31 161,-50 239,-83 468,-205 647,-344 200,-156 294,-323 369,-458 65,-116 112,-200 199,-215 3,-1 7,-2 10,-2 2,0 5,0 6,-2 55,-10 108,-24 160,-41 116,-39 195,-139 205,-262 10,-118 -48,-226 -152,-282z"/>
   <path class="fil2" d="M896 1279c-43,-125 -26,-263 41,-378 73,-125 209,-314 411,-444 326,-209 948,-420 1568,-168 619,252 328,524 -79,787 -641,414 -1534,555 -1774,412 -90,-54 -140,-132 -167,-209z"/>
   <path class="fil1" d="M3257 596c15,158 -208,325 -429,467 -649,419 -1528,549 -1757,411 -76,-45 -129,-112 -160,-200 -41,-118 -27,-252 40,-365 64,-110 169,-257 318,-376 2,10 6,20 12,29 8,12 22,28 38,27 6,-1 9,-8 6,-13 -5,-7 -13,-9 -19,-15 -8,-7 -14,-16 -18,-26 0,-2 -1,-8 -3,-15 23,-17 47,-34 71,-50 61,-39 131,-76 206,-111 0,14 2,27 9,39 5,12 17,32 32,29 2,-1 3,-2 3,-5 0,-11 -13,-20 -19,-31 -6,-12 -10,-25 -10,-39 45,-20 93,-39 143,-56 18,-7 37,-13 57,-19 0,13 2,27 6,39 5,14 13,32 29,34 4,1 6,-2 7,-5 0,-13 -11,-24 -16,-36 -5,-11 -9,-24 -11,-37 13,-4 26,-7 38,-11 0,11 2,21 6,31 6,15 20,38 38,33 3,-1 5,-5 5,-8 0,-12 -14,-21 -19,-32 -5,-10 -8,-20 -9,-30 27,-7 54,-14 81,-20 0,14 2,28 6,41 4,13 9,29 24,33 3,1 6,-1 7,-4 3,-13 -6,-25 -11,-36 -4,-12 -7,-25 -10,-37 9,-2 17,-4 25,-6 3,24 13,48 28,64 4,5 12,3 15,-1 0,0 0,0 0,0 1,-1 2,-2 2,-3 1,-1 1,-1 1,-2 0,0 0,0 0,0 0,-1 0,-2 0,-3 0,-1 0,-2 -1,-3 -5,-12 -13,-23 -18,-36 -3,-7 -4,-13 -6,-20 9,-1 18,-3 28,-5 2,12 6,23 10,33 5,13 10,28 24,31 3,0 6,-1 7,-4 5,-14 -4,-25 -9,-38 -4,-8 -7,-17 -11,-25 10,-2 20,-3 30,-5 2,9 4,17 6,25 4,14 7,28 14,40 6,9 19,3 18,-6 0,-13 -5,-26 -9,-38 -3,-8 -6,-16 -9,-23 10,-2 20,-3 30,-4 1,13 4,25 7,37 3,12 3,27 13,35 4,3 9,2 11,-2 5,-11 -1,-22 -4,-34 -3,-13 -6,-26 -11,-38 12,-1 25,-2 37,-3 0,0 0,0 0,1 2,11 6,22 8,33 1,9 0,20 6,28 2,3 7,4 10,1 6,-10 3,-20 1,-31 -3,-12 -7,-24 -14,-33 10,-1 21,-2 31,-2 2,9 4,18 4,28 1,12 -3,25 2,37 2,6 11,9 15,3 11,-16 8,-48 -2,-70 5,0 11,0 16,0 -1,1 -1,2 -1,3 -1,9 1,17 2,25 1,9 1,18 0,27 -2,14 20,18 21,4 2,-19 2,-44 -11,-60 8,0 16,0 23,0 0,1 0,2 0,3 0,12 -1,25 4,36 3,11 18,7 18,-4 0,-11 -5,-24 -9,-35 0,0 0,0 0,0 199,-3 406,29 610,111 221,90 337,188 347,293zm-335 -322c-282,-114 -586,-144 -903,-89 -328,57 -566,187 -679,259 -202,130 -338,316 -416,449 -71,122 -87,264 -42,391 33,95 91,168 173,217 122,73 409,75 748,5 138,-29 277,-68 413,-115 228,-80 446,-184 629,-302 240,-155 459,-322 443,-496 -11,-119 -131,-223 -366,-319z"/>
   <path class="fil3" d="M2953 396c-619,-252 -1242,-40 -1568,168 -202,130 -337,320 -410,444 -58,99 -79,214 -56,325 29,58 75,113 144,155 240,143 1133,2 1774,-412 240,-156 440,-314 436,-470 -49,-71 -150,-141 -320,-210z"/>
   <path class="fil1" d="M2828 1063c-40,26 -81,51 -123,74 0,-2 -1,-3 -3,-4 -15,-6 -31,2 -47,3 -22,3 -44,1 -66,0 -7,-1 -13,10 -4,13 20,8 42,11 64,10 6,0 13,-1 20,-2 -12,7 -25,14 -37,21 0,-4 -3,-7 -7,-7 -18,2 -34,12 -52,14 -22,2 -43,-2 -63,-12 -8,-4 -14,9 -6,13 18,11 46,20 73,20 -16,7 -31,15 -47,22 2,-3 1,-7 -3,-7 -14,0 -28,5 -42,5 -17,-1 -33,-5 -47,-16 -8,-6 -18,5 -10,12 14,12 41,24 64,24 -8,4 -15,8 -23,11 -1,0 -2,-1 -3,-1 -13,-1 -25,3 -39,4 -16,1 -32,-2 -48,-9 -8,-4 -13,8 -6,12 12,8 29,14 46,16 -7,3 -13,6 -20,9 -11,0 -23,3 -33,3 -19,1 -36,-3 -54,-7 -8,-2 -10,8 -4,12 11,7 24,11 37,14 -7,3 -15,6 -22,9 -5,0 -9,1 -13,0 -23,0 -44,-4 -66,-8 -7,-1 -10,9 -3,12 12,6 25,10 38,13 -7,2 -13,5 -20,7 -11,-1 -22,0 -32,-1 -18,-3 -36,-9 -52,-19 -5,-3 -10,5 -6,9 14,12 30,22 48,26 -9,4 -18,7 -27,10 -1,-1 -1,-2 -2,-3 -9,-9 -31,-5 -44,-7 -18,-4 -35,-12 -50,-23 -6,-4 -15,3 -10,8 14,17 31,29 52,35 3,1 7,3 12,4 -5,1 -10,3 -15,5 -12,-3 -26,-3 -38,-7 -19,-4 -37,-12 -53,-24 -6,-5 -14,4 -8,9 14,13 36,28 58,35 -6,2 -13,4 -19,6 -13,-5 -29,-3 -42,-8 -18,-6 -31,-16 -45,-29 -5,-5 -12,3 -9,8 10,18 28,32 47,38 2,1 4,2 7,3 -7,2 -13,4 -20,6 -12,-3 -24,-4 -36,-8 -18,-7 -35,-16 -49,-30 -5,-5 -14,3 -9,9 13,16 31,31 51,38 1,1 2,1 3,1 -6,2 -12,4 -17,5 -1,0 -1,-1 -2,-1 -13,-8 -32,-4 -46,-8 -18,-5 -34,-14 -48,-27 -5,-5 -14,3 -9,9 13,16 30,29 51,36 2,1 6,2 9,3 -13,3 -26,6 -39,9 -12,-4 -25,-4 -36,-10 -18,-8 -33,-19 -46,-34 -4,-5 -11,0 -8,5 11,19 27,34 47,43 2,2 5,3 8,4 -15,3 -30,7 -45,10 -6,-2 -12,-3 -18,-5 -21,-8 -39,-20 -56,-34 -6,-6 -14,4 -8,10 13,14 29,26 47,36 -3,0 -7,1 -10,1 -11,-3 -22,-6 -31,-10 -22,-11 -43,-24 -61,-40 -6,-5 -13,3 -8,9 18,18 38,35 61,46 1,1 3,1 4,2 -5,1 -9,1 -13,2 -13,-8 -31,-10 -45,-17 -19,-9 -37,-21 -53,-36 -6,-5 -13,4 -8,9 16,17 33,32 54,42 5,3 10,5 16,8 -4,0 -8,1 -11,2 -14,-6 -31,-9 -44,-15 -20,-9 -39,-21 -56,-36 -4,-3 -11,3 -7,7 15,18 32,33 53,43 4,2 9,4 13,6 -10,2 -20,3 -30,4 -15,-8 -34,-11 -49,-19 -21,-12 -39,-28 -53,-46 -5,-6 -15,0 -10,7 13,21 29,38 51,51 6,3 13,8 22,12 -17,1 -33,3 -49,4 -18,-10 -36,-14 -53,-26 -17,-13 -29,-28 -43,-43 -4,-5 -11,-2 -9,4 9,26 33,53 61,68 -9,1 -17,1 -25,1 -13,-13 -35,-19 -50,-31 -16,-14 -30,-30 -41,-48 -4,-6 -12,-1 -10,5 8,22 21,41 39,57 7,6 15,13 24,18 -9,1 -18,1 -26,1 -11,-9 -26,-15 -36,-25 -18,-16 -32,-36 -41,-59 -3,-6 -12,-3 -10,4 6,26 18,47 37,66 4,4 9,9 15,13 -6,0 -12,0 -18,0 -13,-9 -27,-15 -39,-26 -17,-16 -29,-37 -38,-59 -3,-6 -11,-3 -10,4 5,25 17,47 35,66 4,4 9,8 14,12 -4,0 -8,0 -12,0 -16,-11 -33,-17 -46,-31 -18,-18 -26,-41 -35,-63 -2,-5 -8,-3 -8,1 -1,29 19,66 46,87 -9,-1 -18,-2 -26,-4 -15,-11 -31,-20 -43,-35 -15,-19 -25,-40 -32,-63 -2,-6 -12,-4 -11,3 2,22 13,52 30,75 -11,-7 -22,-15 -31,-27 -16,-22 -23,-47 -27,-74 -1,-6 -11,-8 -12,0 -3,24 6,57 22,84 -12,-12 -25,-21 -34,-36 -14,-24 -18,-51 -16,-78 0,-7 -9,-9 -11,-2 -6,23 -3,54 8,81 -9,-12 -18,-24 -24,-38 -10,-24 -13,-49 -14,-74 0,-6 -8,-6 -9,-1 -5,21 -3,51 5,78 -20,-24 -38,-50 -53,-79 -22,-104 -2,-215 54,-311 77,-130 209,-313 406,-438 351,-226 969,-405 1553,-168 156,63 260,131 311,201 -1,154 -217,315 -430,452zm458 -466c-54,-77 -161,-148 -327,-215 -282,-115 -585,-145 -903,-90 -45,8 -88,17 -130,28 0,-13 -11,-24 -16,-36 -8,-18 -11,-38 -12,-57 0,-8 -11,-8 -13,-1 -5,22 -4,44 4,65 4,12 10,26 20,33 -45,12 -88,24 -129,38 0,0 0,0 0,0 -1,-13 -13,-22 -18,-34 -6,-15 -8,-32 -5,-48 1,-7 -11,-12 -14,-4 -6,18 -7,37 0,56 5,12 12,29 25,34 -11,4 -22,7 -33,11 -4,-11 -14,-21 -19,-32 -6,-16 -8,-31 -5,-48 2,-9 -12,-12 -14,-3 -5,19 -5,39 1,57 5,11 12,25 22,32 -8,3 -17,6 -25,9 -5,-11 -17,-19 -24,-30 -9,-15 -12,-32 -12,-49 -1,-7 -11,-8 -12,-1 -4,19 -1,38 9,56 5,10 14,24 26,30 -11,4 -21,8 -31,12 -6,-10 -15,-18 -20,-28 -8,-15 -12,-32 -15,-49 -1,-6 -10,-8 -11,-1 -4,20 -1,39 8,58 4,9 10,20 19,28 -20,9 -39,17 -57,26 0,-1 0,-1 0,-1 -5,-13 -18,-21 -25,-33 -9,-13 -13,-29 -17,-44 -2,-4 -7,-3 -8,0 -5,18 -1,37 7,53 6,11 15,27 27,32 -11,5 -23,11 -33,16 -5,-10 -14,-18 -20,-27 -8,-15 -11,-30 -17,-45 -2,-6 -12,-6 -12,1 -3,22 11,64 33,79 -7,4 -14,7 -20,11 0,0 0,0 0,0 -6,-12 -20,-18 -28,-29 -9,-12 -13,-25 -17,-40 -2,-6 -13,-6 -14,1 -1,18 5,35 15,50 7,9 17,22 28,26 -8,5 -17,10 -25,14 -9,-7 -19,-11 -27,-19 -11,-13 -16,-28 -16,-45 0,-9 -14,-10 -16,-1 -2,20 3,40 16,55 6,8 14,16 24,21 -7,4 -14,8 -20,12 -7,-7 -18,-12 -24,-19 -14,-14 -21,-32 -26,-51 -3,-9 -17,-6 -17,4 1,22 11,43 25,59 6,6 13,14 21,20 -4,2 -8,5 -12,7 -5,4 -9,7 -14,10 0,-1 0,-1 0,-2 -2,-13 -19,-20 -27,-30 -11,-14 -13,-30 -21,-46 -1,-4 -7,-5 -9,-1 -8,19 0,41 11,57 7,11 22,29 37,28 -21,14 -42,30 -62,46 0,-5 -6,-11 -10,-14 -19,-13 -26,-27 -35,-48 -1,-3 -3,-5 -6,-6 -1,0 -3,0 -4,0l-1 1c-4,1 -5,5 -5,9 -1,16 8,32 19,45 6,7 20,21 31,21 -9,8 -19,16 -28,24 -1,-1 -1,-1 -1,-2 -11,-10 -23,-16 -30,-30 -7,-12 -6,-26 -13,-37 -1,-2 -5,-2 -6,0 -19,23 12,70 37,80 -7,7 -15,14 -23,21 -7,-9 -16,-17 -21,-27 -9,-17 -8,-33 -12,-51 -1,-4 -7,-3 -8,0 -12,23 2,74 27,91 -11,11 -22,22 -32,33 -7,-8 -14,-16 -18,-26 -8,-18 -8,-37 0,-55 4,-9 -9,-15 -13,-6 -11,21 -12,45 -4,67 4,11 11,25 22,33 -9,10 -18,19 -26,29 -5,-7 -11,-14 -14,-22 -10,-21 -10,-43 -3,-65 3,-6 -6,-11 -9,-4 -10,22 -12,45 -5,69 3,11 10,25 19,35 -7,8 -13,15 -19,23 -6,-6 -11,-11 -15,-19 -9,-19 -10,-40 -2,-59 3,-8 -8,-13 -12,-6 -10,22 -11,46 -2,69 4,10 11,21 19,29 -6,8 -12,15 -18,23 -5,-8 -9,-16 -13,-24 -8,-19 -11,-38 -9,-58 0,-7 -11,-10 -11,-2 -4,30 1,72 24,96 -6,7 -11,15 -17,22 -5,-9 -13,-17 -18,-27 -7,-15 -9,-31 -10,-48 0,-7 -10,-7 -11,-1 -4,26 6,72 31,88 -9,12 -17,25 -25,37 -5,-5 -9,-10 -12,-16 -9,-18 -11,-39 -4,-58 3,-8 -8,-14 -12,-6 -9,22 -9,45 1,67 3,9 9,19 17,27 -5,8 -10,16 -15,23 -5,-5 -10,-10 -14,-17 -11,-17 -15,-36 -13,-56 0,-8 -11,-10 -12,-2 -5,27 5,71 30,90 -6,9 -11,19 -17,28 0,0 -1,1 -1,2 -5,-8 -12,-16 -16,-25 -8,-16 -12,-32 -13,-50 0,-5 -8,-6 -8,0 -2,26 5,70 31,86 -7,12 -12,24 -18,36 -2,-4 -5,-8 -7,-12 -8,-14 -13,-29 -17,-45 -1,-4 -7,-2 -7,2 2,23 10,48 26,67 -36,87 -46,182 -27,274l0 2 1 2c35,68 85,122 150,161 122,73 409,75 748,5 138,-29 277,-68 413,-115 228,-80 446,-184 629,-302 222,-143 448,-313 444,-483l0 -5 -3 -4z"/>
   <path class="fil4" d="M2458 626c53,153 -121,353 -389,446 -267,94 -528,46 -581,-107 -54,-152 95,-424 364,-513 330,-109 552,22 606,174z"/>
   <path class="fil1" d="M1848 470c-136,47 -254,150 -316,276 -39,79 -50,157 -30,214 51,145 303,188 562,98 260,-91 430,-282 379,-427 -54,-155 -278,-266 -586,-164 -3,0 -6,1 -9,3zm226 617c-275,96 -545,44 -601,-116 -23,-66 -11,-153 31,-239 67,-136 195,-246 344,-295 326,-108 565,14 624,184 56,161 -122,369 -398,466z"/>
   <path class="fil1" d="M2563 543c-2,-3 -8,0 -5,4 13,19 20,42 21,64 1,20 -7,37 -7,56 0,3 3,3 5,2 32,-33 10,-96 -14,-126z"/>
   <path class="fil1" d="M2589 539c-2,-3 -8,-1 -6,3 8,18 16,37 18,57 3,17 -3,34 3,49 1,3 4,4 6,2 13,-14 9,-38 6,-55 -4,-22 -12,-40 -27,-56z"/>
   <path class="fil1" d="M2619 539c-4,-4 -10,0 -7,5 9,15 15,32 18,49 1,12 -2,25 4,36 1,2 4,2 6,0 10,-10 6,-30 3,-43 -4,-18 -12,-33 -24,-47z"/>
   <path class="fil1" d="M2675 565c-6,-13 -12,-26 -20,-38 -2,-4 -9,-1 -7,3 6,13 10,26 14,39 3,12 4,26 12,35 2,4 7,3 8,-1 4,-13 -3,-26 -7,-38z"/>
   <path class="fil1" d="M2573 754c-11,21 -16,45 -28,66 -13,23 -28,44 -47,62 -3,3 2,8 5,6 35,-32 78,-83 77,-133 0,-4 -5,-5 -7,-1z"/>
   <path class="fil1" d="M2596 793c-9,13 -12,31 -19,47 -7,16 -15,32 -25,48 -2,2 2,5 4,3 12,-15 23,-30 31,-47 7,-14 17,-33 15,-49 0,-3 -4,-5 -6,-2z"/>
   <path class="fil1" d="M2629 820c-9,7 -14,21 -20,32 -6,13 -13,27 -19,41 -2,4 4,7 7,3 7,-12 15,-24 22,-37 6,-11 15,-23 17,-35 0,-4 -4,-7 -7,-4z"/>
   <path class="fil1" d="M1259 1045c-10,0 -19,3 -29,7 -1,-13 -1,-26 -1,-39 10,-2 19,-5 27,-9 0,14 1,27 3,41zm0 -82c-1,8 -2,17 -2,26 -9,2 -16,6 -24,9 -15,4 -29,8 -44,11 -5,1 -5,10 1,10 8,-1 18,-2 28,-4 -2,14 -2,28 -2,42 -9,5 -18,10 -26,15 0,-1 0,-1 0,-2 -2,-15 -2,-30 0,-46 0,-7 -11,-10 -12,-2 -3,16 -6,39 -4,59 -4,3 -8,6 -12,8 -5,3 0,10 5,8 3,-2 6,-3 9,-5 2,7 4,13 8,18 2,4 10,3 10,-2 1,-8 0,-16 -2,-25 8,-4 17,-8 26,-12 0,0 0,0 0,0 2,17 3,39 16,51 2,2 6,0 7,-3 2,-16 -6,-32 -9,-48 0,-2 0,-4 0,-5 10,-4 19,-8 28,-13 5,23 14,45 30,60 3,2 8,0 7,-4 -4,-20 -16,-37 -21,-57 -5,-18 -8,-37 -9,-55 1,-1 2,-1 3,-2 2,-3 0,-6 -3,-7 0,-8 0,-15 0,-23 1,-5 -7,-7 -8,-2z"/>
   <path class="fil1" d="M1142 1055c1,12 1,25 1,37 0,10 -1,21 5,30 2,3 6,2 8,-1 5,-9 2,-20 1,-30 -1,-12 -2,-25 -3,-37 -1,-7 -12,-6 -12,1z"/>
   <path class="fil1" d="M1276 942c-11,-6 -25,-1 -37,2 -15,4 -29,10 -42,18 -5,3 -1,11 4,9 14,-6 28,-11 43,-14 11,-2 23,-1 33,-7 3,-2 2,-6 -1,-8z"/>
   <path class="fil1" d="M1414 1026c-6,-1 -12,-2 -17,-3 -2,-12 -3,-24 -3,-35 6,3 11,5 17,6 0,1 0,1 0,1 0,11 1,21 3,31zm-3 45c-2,-3 -3,-7 -5,-10 -3,-9 -5,-18 -7,-27 6,2 13,4 19,5 3,9 7,18 12,27 3,4 7,10 11,15 -11,-1 -21,-4 -30,-10zm126 31c-7,-11 -24,-15 -34,-23 -13,-9 -23,-20 -32,-34 -5,-8 -16,0 -12,8 5,9 10,17 17,24 -4,1 -8,1 -12,2 -7,-6 -14,-12 -19,-19 -4,-6 -8,-13 -11,-19 11,0 23,-1 30,-9 2,-2 1,-5 -1,-6 -10,-4 -21,0 -31,0 -2,0 -3,0 -4,0 -3,-9 -5,-19 -6,-30 9,1 19,1 24,-7 1,-3 -1,-6 -3,-7 -7,-4 -17,0 -24,-1 -9,-1 -17,-4 -24,-8 0,-5 1,-9 1,-13 1,-8 -10,-10 -12,-2 -4,19 -5,42 -2,64 -1,2 -1,4 0,6 6,47 26,95 66,118 5,2 8,-4 6,-7 -11,-19 -24,-34 -35,-52 11,5 23,8 35,8 8,8 17,13 27,14 4,0 7,-4 5,-7 -3,-4 -6,-8 -9,-11 2,-1 5,-3 7,-5 3,3 6,6 9,8 11,9 27,21 41,16 4,-1 5,-5 3,-8z"/>
   <path class="fil1" d="M1946 1227c-17,3 -33,8 -50,13 -1,-4 -1,-8 -2,-12 17,-2 34,-6 50,-12 0,4 1,8 2,11zm3 20c2,7 2,14 4,21 -16,5 -31,11 -46,16 -2,-7 -4,-13 -6,-20 0,-1 0,-2 0,-3 17,-3 33,-8 48,-14 0,0 0,0 0,0zm-69 -3c-21,6 -42,11 -63,12 -3,-9 -7,-18 -10,-26 24,2 48,3 71,0 1,5 2,10 2,14zm4 85c-14,4 -28,7 -43,9 -1,-7 -3,-14 -5,-21 20,0 41,-2 60,-6 2,3 3,6 5,9 1,1 2,2 4,2 -7,3 -14,5 -21,7zm-62 -59c4,0 8,0 13,-1 15,-1 32,-2 49,-5 0,1 0,2 0,4 2,7 3,14 5,21 -10,3 -20,5 -30,7 -10,1 -19,2 -28,3 -3,-10 -6,-19 -9,-29zm171 -90c-15,4 -29,8 -43,13 0,0 0,0 0,0 -1,-6 -11,-4 -10,2 0,0 0,1 0,1 -16,5 -33,10 -49,14 -1,-4 -2,-8 -2,-12 -2,-8 -15,-8 -14,1 0,4 1,9 1,13 -5,1 -11,2 -17,2 -19,1 -38,1 -57,-1 -1,-2 -1,-3 -2,-5 -1,-5 -9,-2 -8,3 0,0 0,0 0,1 -23,-4 -46,-9 -70,-15 -6,-1 -9,8 -3,11 23,9 49,16 77,20 2,9 4,19 6,28 -22,-1 -44,-8 -64,-25 -5,-4 -9,2 -6,6 21,22 45,31 73,33 2,10 4,20 7,30 -23,1 -45,1 -67,0 -5,-1 -5,7 -1,8 22,5 47,8 72,9 2,8 5,16 7,24 -18,2 -36,4 -55,6 -4,1 -5,7 0,8 18,3 39,4 61,2 2,6 4,11 7,15 2,6 11,5 11,-2 -1,-4 -1,-9 -2,-14 49,-4 100,-19 129,-49 3,-2 0,-7 -4,-7 -20,3 -40,12 -59,20 0,-1 1,-3 1,-4 0,-3 0,-6 0,-9 17,-4 34,-11 50,-19 3,3 8,2 9,-2 0,-1 0,-2 0,-3 6,-4 11,-7 16,-11 6,-5 1,-13 -6,-12 -4,1 -8,2 -11,4 -2,-7 -4,-13 -6,-20 0,-1 -1,-2 -1,-4 5,-3 10,-6 15,-9 3,-3 1,-8 -3,-8 -5,1 -11,1 -16,2 -1,-5 -3,-9 -4,-14 15,-6 29,-14 41,-24 4,-3 1,-8 -3,-7z"/>
   <path class="fil1" d="M1895 1358c-15,6 -27,17 -43,23 -17,6 -34,10 -52,10 -5,0 -6,7 -1,8 34,3 82,-3 102,-34 2,-4 -2,-8 -6,-7z"/>
   <path class="fil1" d="M2335 964c-26,18 -45,43 -70,62 -28,21 -60,38 -91,53 -6,2 -3,10 2,8 60,-16 139,-58 165,-117 2,-4 -2,-8 -6,-6z"/>
   <path class="fil1" d="M2344 997c-19,12 -30,34 -46,50 -19,19 -41,37 -64,52 -4,3 0,10 5,8 40,-19 104,-56 114,-104 1,-5 -5,-9 -9,-6z"/>
   <path class="fil1" d="M2342 1070c-10,4 -16,13 -24,20 -10,9 -20,18 -30,27 -5,4 0,11 6,8 12,-7 24,-14 35,-24 8,-7 17,-14 19,-25 1,-4 -2,-7 -6,-6z"/>
   <path class="fil1" d="M2885 646c-9,-2 -19,-1 -29,0 1,-5 2,-10 3,-15 11,0 23,-1 31,-7 -1,7 -3,15 -5,22zm-36 33c1,-3 1,-6 2,-8 0,-3 1,-5 1,-8 11,0 21,-1 31,-3 -2,6 -3,13 -5,20 -9,-1 -19,-1 -29,-1zm48 -89c-1,7 -3,14 -4,22 -10,-4 -20,-2 -30,0 1,-4 2,-8 3,-12 0,-4 -5,-5 -5,-1 -2,4 -3,9 -4,14 -1,0 -2,1 -3,1 -17,2 -34,3 -50,3 -7,0 -8,11 -1,12 16,2 32,3 49,3 -2,5 -3,10 -5,15 -2,0 -4,0 -6,1 -18,1 -35,4 -53,6 -6,1 -6,10 0,10 18,-1 36,0 54,-1 1,0 1,0 1,0 0,2 -1,4 -2,6 0,3 -2,7 -3,10 -6,1 -13,1 -19,1 -27,2 -54,3 -81,5 -8,1 -7,12 1,12 28,1 61,4 93,3 -3,11 -5,22 -4,32 0,4 5,5 7,1 5,-10 8,-21 11,-33 10,-1 20,-2 30,-4 -1,6 -1,12 0,18 1,6 9,9 12,2 8,-17 9,-39 11,-58 3,-22 6,-44 8,-66 1,-7 -8,-9 -10,-2z"/>
   <path class="fil1" d="M2939 599c-8,15 -16,31 -20,49 -4,14 -10,35 -4,49 3,5 10,6 12,1 7,-13 4,-30 7,-45 3,-17 7,-34 14,-50 2,-6 -6,-10 -9,-4z"/>
   <path class="fil1" d="M2912 854c-1,-1 -2,-2 -3,-2 1,-2 3,-4 4,-6 2,1 3,1 5,1 -2,3 -4,5 -6,7zm-49 -3c1,-2 2,-4 3,-6 8,-1 15,-1 23,-1 -1,1 -2,3 -3,4 -1,1 -1,1 -2,2 -7,0 -14,0 -21,1zm80 -25c-5,-4 -10,0 -14,5 -3,-1 -6,-1 -9,-2 0,-1 0,-1 0,-2 0,-4 -3,-6 -6,-5 -4,1 -8,4 -11,6 -11,0 -21,1 -31,3 0,-3 1,-5 1,-8 1,-5 -4,-7 -7,-4 -5,5 -10,10 -14,16 -2,0 -3,1 -5,1 -5,2 -5,6 -3,10 -5,8 -11,16 -17,23 -15,18 -32,34 -51,48 -6,4 0,13 6,9 25,-15 54,-37 73,-63 5,1 10,1 15,1 -6,6 -13,12 -19,18 -7,5 0,14 7,10 13,-7 25,-16 36,-26 3,0 7,0 10,0 0,3 4,6 8,5 10,-3 19,-10 26,-18 5,-6 14,-20 5,-27z"/>
   <path class="fil1" d="M2814 440c-3,0 -7,1 -8,4 -2,5 1,5 3,9 9,14 3,18 -10,21 -7,1 -14,1 -21,1 -12,0 -29,-1 -36,-12 -7,-11 -6,-22 9,-25 8,-2 17,2 24,4 5,2 7,-5 3,-8 -17,-9 -46,-16 -53,9 -5,19 9,37 25,43 20,6 55,7 71,-6 14,-12 12,-36 -7,-40z"/>
   <path class="fil1" d="M1400 765c-4,0 -6,3 -7,6 -1,2 -1,4 0,7 0,6 -3,11 -9,15 -4,4 -11,7 -16,10 -6,3 -12,6 -19,6 -12,0 -17,-10 -12,-19 7,-16 27,-17 42,-18 8,-1 7,-12 -1,-12 -20,-1 -44,1 -55,21 -7,13 -6,31 7,40 17,10 35,2 51,-6 16,-9 34,-24 27,-45 -1,-3 -4,-5 -8,-5z"/>
   <path class="fil1" d="M1417 1320c-33,6 -71,10 -87,45 -2,4 4,8 7,4 16,-24 46,-26 72,-30 9,-1 18,-2 28,-4 6,0 12,-1 18,-2 10,10 10,19 0,27 -19,23 -41,18 -66,17 -7,-1 -13,0 -19,3 -3,2 -14,12 -15,12 -5,-7 -15,-4 -15,5l0 5c0,3 2,7 6,8 14,6 17,0 29,-8 16,-10 42,1 60,-5 25,-8 53,-34 48,-62 -5,-33 -44,-18 -66,-15z"/>
   <path class="fil1" d="M2269 1234c2,11 -2,12 -10,18 -7,5 -14,9 -21,13 -5,2 -10,4 -15,5 -5,2 -11,3 -16,3 -11,1 -15,-6 -13,-22 5,-3 4,-9 1,-13 10,-4 21,-7 31,-9 8,-2 15,-4 23,-4 11,-1 18,-4 20,9zm14 -22c-27,-16 -71,4 -92,20 -1,1 -2,2 -2,3 -1,0 -2,0 -3,0 -24,9 -22,39 -2,51 27,17 66,-4 88,-21 15,-12 34,-39 11,-53z"/>
   <path class="fil1" d="M2566 1023c-4,0 -6,0 -9,3 -2,3 -2,5 -2,7 -2,9 -3,14 -9,20 -7,7 -18,17 -27,18 -25,2 -8,-25 -1,-33 4,-5 -3,-12 -8,-7 -11,10 -21,21 -19,36 2,13 12,20 24,21 15,1 28,-8 39,-17 12,-10 23,-22 20,-39 0,-4 -3,-9 -8,-9z"/>
   <path class="fil1" d="M3853 314c-21,-20 -45,-36 -74,-43 -3,-1 -5,3 -2,5 21,15 44,28 64,46 19,18 31,44 51,60 2,2 8,0 7,-4 -4,-25 -28,-47 -46,-64z"/>
   <path class="fil1" d="M3843 341c-11,-14 -25,-25 -39,-35 -5,-4 -11,3 -6,7 14,11 25,24 36,38 8,11 13,26 24,36 3,2 7,0 7,-4 0,-15 -13,-30 -22,-42z"/>
   <path class="fil1" d="M3634 258c-60,30 -119,42 -186,46 -4,0 -4,6 -1,7 66,10 137,-6 194,-40 7,-4 1,-17 -7,-13z"/>
   <path class="fil1" d="M3697 247c-27,15 -49,39 -76,54 -31,18 -64,31 -97,41 -4,1 -3,9 1,8 62,-11 144,-40 178,-97 3,-5 -3,-8 -6,-6z"/>
   <path class="fil1" d="M3238 1119c-39,50 -74,103 -118,150 -47,50 -99,95 -153,137 -83,63 -171,120 -262,170 -5,-9 -11,-19 -16,-28 -3,-5 -6,-10 -10,-15 94,-49 189,-103 265,-173 8,-7 -3,-17 -11,-13 -92,51 -177,113 -267,166 -15,-21 -32,-41 -52,-59 -5,-4 -13,3 -9,9 16,19 31,38 46,59 -13,7 -25,14 -38,21 -115,61 -235,113 -357,157 -115,41 -233,74 -352,99 -132,28 -263,40 -396,58 -4,1 -4,7 0,7 132,3 270,-20 399,-46 124,-26 245,-60 364,-102 119,-42 234,-93 346,-151 15,-8 31,-16 46,-24 3,4 5,8 7,12 6,10 11,22 16,34 -28,15 -56,30 -85,44 -127,63 -260,116 -396,158 -142,43 -287,67 -432,93 -4,1 -4,7 0,7 295,-12 600,-115 861,-247 21,-11 41,-21 61,-32 6,11 12,21 20,29 2,2 6,1 6,-2 2,-13 -1,-26 -6,-38 98,-54 192,-114 280,-182 98,-76 208,-172 255,-290 3,-7 -6,-14 -12,-8z"/>
   <path class="fil1" d="M2806 1136c-67,39 -130,94 -194,139 -6,5 1,14 7,10 66,-39 142,-84 194,-141 4,-5 -2,-10 -7,-8z"/>
   <path class="fil1" d="M2785 1201c-43,17 -81,55 -117,83 -6,5 0,14 6,10 39,-26 87,-50 117,-85 3,-4 -1,-11 -6,-8z"/>
   <path class="fil1" d="M3213 864c-23,17 -40,44 -60,66 -24,28 -51,53 -79,77 -6,5 0,15 7,10 27,-20 53,-42 77,-66 23,-23 52,-49 63,-80 2,-5 -3,-11 -8,-7z"/>
   <path class="fil1" d="M3222 918c-16,12 -27,32 -40,47 -17,19 -36,37 -56,52 -5,5 1,13 7,9 20,-14 40,-30 57,-48 15,-15 35,-34 40,-55 1,-4 -4,-7 -8,-5z"/>
   <path class="fil1" d="M3286 402c-5,-3 -11,4 -6,8 17,14 30,31 36,53 6,20 3,38 5,58 0,6 8,8 11,2 21,-40 -13,-97 -46,-121z"/>
   <path class="fil1" d="M3333 397c-4,-5 -12,0 -9,6 10,15 18,30 24,47 5,13 6,28 14,39 2,4 9,3 10,-2 6,-30 -20,-68 -39,-90z"/>
   <path class="fil1" d="M3410 428c-6,-13 -12,-26 -18,-39 -4,-7 -16,-3 -13,5 5,13 11,26 16,39 4,10 7,23 17,29 3,2 7,2 8,-3 2,-11 -5,-21 -10,-31z"/>
   <path class="fil1" d="M3756 505c-27,11 -50,30 -78,39 -35,13 -73,17 -109,13 -6,-1 -8,7 -2,9 63,12 156,5 194,-55 2,-3 -2,-7 -5,-6z"/>
   <path class="fil1" d="M3840 425c-5,9 -11,19 -18,27 -8,8 -19,13 -27,20 -3,3 0,8 3,8 13,3 27,-6 36,-15 5,-5 10,-11 13,-17 4,-8 4,-13 3,-21 0,-6 -7,-6 -10,-2z"/>
   <path class="fil1" d="M3865 460c-39,37 -67,78 -116,105 -47,25 -100,39 -153,39 -4,0 -5,8 0,8 100,8 244,-41 277,-149 2,-4 -5,-6 -8,-3z"/>
   <path class="fil1" d="M1565 972c-11,-24 -11,-49 -7,-74 1,-4 -6,-6 -7,-2 -17,44 0,120 52,133 2,1 4,-3 3,-5 -15,-17 -32,-31 -41,-52z"/>
   <path class="fil1" d="M1663 1039c-19,-15 -39,-23 -53,-43 -15,-21 -22,-46 -21,-72 0,-5 -7,-5 -8,0 -8,47 24,122 80,122 3,0 5,-5 2,-7z"/>
   <path class="fil1" d="M1713 1040c-15,-15 -34,-21 -49,-37 -15,-17 -25,-36 -30,-58 -2,-4 -9,-3 -8,1 4,26 14,48 30,68 13,15 33,33 54,33 4,0 5,-5 3,-7z"/>
   <path class="fil1" d="M1777 1031c-14,-13 -32,-17 -46,-30 -16,-15 -27,-33 -34,-54 -2,-5 -9,-2 -8,3 5,22 15,43 31,59 13,14 35,31 54,28 4,0 5,-4 3,-6z"/>
   <path class="fil1" d="M1859 1019c-19,-5 -38,-7 -55,-18 -19,-12 -32,-30 -36,-52 -1,-7 -12,-7 -11,1 3,44 56,104 103,75 3,-2 2,-6 -1,-6z"/>
   <path class="fil1" d="M1963 1020c-9,-5 -19,-4 -29,-6 -12,-2 -23,-6 -34,-12 -23,-11 -42,-27 -56,-48 -3,-4 -11,-1 -8,4 12,24 30,45 54,58 19,11 54,26 74,13 3,-2 2,-7 -1,-9z"/>
   <path class="fil1" d="M2031 988c-20,0 -38,5 -58,0 -22,-6 -41,-17 -55,-36 -4,-5 -12,1 -9,6 23,35 86,71 124,38 4,-3 2,-7 -2,-8z"/>
   <path class="fil1" d="M2101 946c-18,-2 -37,5 -55,5 -26,1 -49,-3 -73,-13 -5,-2 -8,5 -3,8 34,18 99,37 133,8 3,-2 3,-7 -2,-8z"/>
   <path class="fil1" d="M2192 892c-50,13 -90,30 -143,16 -5,-2 -8,7 -3,8 47,17 113,21 151,-17 3,-4 -1,-8 -5,-7z"/>
   <path class="fil1" d="M2255 842c-19,7 -35,21 -55,27 -24,7 -49,7 -73,0 -6,-1 -10,9 -4,12 41,15 117,15 137,-34 2,-3 -1,-7 -5,-5z"/>
   <path class="fil1" d="M2319 765c-16,9 -29,22 -45,31 -21,11 -42,17 -65,19 -6,1 -5,10 1,10 41,1 97,-14 115,-55 2,-4 -2,-7 -6,-5z"/>
   <path class="fil1" d="M2372 669c-19,14 -30,37 -49,52 -21,16 -44,28 -70,35 -7,1 -4,13 3,12 28,-5 55,-14 78,-32 19,-14 44,-36 46,-61 0,-5 -4,-9 -8,-6z"/>
   <path class="fil1" d="M2380 595c-2,-2 -4,-3 -6,-1 -10,11 -9,28 -16,41 -9,15 -22,28 -37,37 -4,3 0,10 5,8 19,-5 34,-17 45,-34 9,-13 20,-37 9,-51z"/>
   <path class="fil1" d="M2353 563c-2,-2 -4,-3 -6,-2 -6,6 -5,14 -6,21 -1,10 -1,19 -2,29 -1,7 10,9 11,2 1,-9 3,-19 4,-28 1,-7 4,-16 -1,-22z"/>
   <path class="fil1" d="M2315 529c-2,-2 -5,-1 -6,0 -4,4 -3,10 -3,16 0,6 0,12 0,19 0,8 13,7 13,-1 0,-7 0,-13 0,-19 0,-6 0,-11 -4,-15z"/>
   <path class="fil1" d="M895 1682c0,8 2,18 5,28 -18,-4 -35,-7 -53,-9 -6,-11 -10,-23 -13,-36 22,3 43,6 65,10 -3,1 -4,3 -4,7zm-93 14c-4,-6 -8,-11 -11,-18 -3,-5 -5,-11 -6,-17 11,0 22,1 33,2 1,11 4,24 9,36 -8,-1 -17,-2 -25,-3zm-34 -3c-6,0 -11,0 -16,-1 -3,-6 -7,-13 -9,-20 -2,-4 -3,-8 -4,-13 10,0 21,1 31,1 1,12 4,24 10,34 -4,0 -8,0 -12,-1zm-38 -2c-9,-1 -17,-1 -26,-1 -4,-9 -11,-17 -14,-26 0,-1 -1,-3 -1,-4 7,0 13,0 20,-1 4,0 7,0 11,0 1,4 2,9 3,13 2,5 4,12 7,19zm-87 -1c-5,-8 -10,-16 -14,-25 14,-1 28,-3 42,-4 1,2 1,4 2,6 2,7 5,15 9,22 -13,0 -26,1 -39,1zm-58 3c-4,-6 -9,-11 -13,-17 0,-1 -1,-2 -1,-3 13,-2 25,-4 38,-6 3,8 7,16 12,23 -12,1 -24,2 -36,3zm-64 7c-6,-4 -11,-9 -16,-15 0,-1 -1,-1 -1,-2 16,-3 32,-5 47,-8 1,2 2,3 2,5 2,4 5,10 9,15 -14,1 -27,3 -41,5zm-71 13c-3,-3 -7,-6 -10,-10 -2,-3 -4,-6 -5,-9 17,-3 33,-6 50,-8 2,2 3,5 5,7 2,3 4,7 7,11 -15,3 -31,6 -47,9zm-52 12c-2,-1 -3,-3 -5,-4 -5,-6 -10,-13 -14,-20 13,-1 26,-3 39,-5 2,5 4,10 7,14 2,2 4,5 6,7 -11,3 -22,5 -33,8zm676 -17c-87,-47 -192,-64 -292,-67 0,-4 0,-8 0,-12 1,-9 -12,-11 -13,-3 0,5 -1,9 -1,15 -11,0 -22,-1 -33,-1 -1,-8 -2,-16 -3,-24 0,-8 -15,-10 -15,-1 -1,9 -1,17 0,26 -11,0 -21,0 -32,1 -1,-9 -1,-18 1,-27 1,-10 -12,-12 -15,-3 -2,10 -3,20 -3,30 -15,1 -30,2 -46,3 -2,-7 -3,-15 -5,-22 -2,-7 -12,-6 -13,0 -1,8 -1,16 0,24 -14,1 -27,3 -41,4 -2,-8 -2,-16 -2,-25 1,-9 -13,-13 -15,-3 -1,10 -2,21 0,30 -18,3 -35,5 -53,8 -3,-9 -4,-19 -4,-30 0,-8 -14,-9 -14,-1 -1,12 -1,23 2,34 -17,3 -34,7 -50,10 -3,-8 -4,-16 -4,-24 -1,-7 -12,-8 -13,-1 -1,10 0,20 2,29 -14,3 -27,6 -40,10 -3,-9 -6,-18 -7,-28 -1,-7 -12,-6 -12,1 1,11 3,21 6,30 -12,4 -24,7 -35,11 -3,1 -2,5 1,5 13,-1 26,-2 39,-4 4,9 9,18 16,26 -17,4 -33,7 -49,11 -22,-21 -36,-48 -42,-77 -1,-7 -12,-7 -11,0 2,31 13,58 32,81 -15,3 -30,5 -45,8 -15,-18 -25,-39 -30,-62 -1,-5 -10,-3 -10,2 2,20 9,42 21,62 -40,5 -80,7 -121,4 -5,-1 -7,8 -1,9 44,7 88,6 132,1 19,26 47,45 78,43 6,0 7,-8 2,-11 -20,-12 -41,-19 -59,-35 16,-2 31,-5 46,-8 19,17 47,37 70,29 3,-1 4,-5 2,-7 -13,-13 -31,-18 -47,-27 14,-3 29,-7 44,-10 12,12 29,23 45,20 4,0 5,-4 3,-7 -7,-8 -16,-13 -25,-18 9,-2 19,-4 28,-6 9,7 19,13 30,12 4,0 7,-5 4,-8 -3,-4 -7,-7 -10,-10 15,-2 29,-5 44,-7 8,6 17,10 27,8 3,0 6,-4 3,-7 -1,-2 -2,-4 -3,-5 0,0 1,0 1,0 13,-2 25,-3 37,-4 4,3 8,4 12,5 4,1 8,-3 8,-6 13,-1 25,-2 38,-2 3,1 7,1 10,-1 0,0 0,0 0,0 32,0 64,0 97,2 2,3 5,5 8,6 3,1 6,0 7,-3 0,-1 0,-1 0,-1 3,0 5,0 8,0 11,1 22,3 33,4 3,2 6,4 10,5 2,0 3,-1 4,-2 9,1 19,3 28,5 10,15 23,26 39,29 4,0 6,-4 4,-7 -4,-6 -8,-11 -13,-16 14,3 28,5 42,8 6,9 15,17 25,19 4,0 7,-3 6,-7 -1,-3 -3,-6 -5,-9 10,1 19,2 28,2 1,0 1,0 2,0 0,0 0,1 0,1 6,9 14,22 26,21 2,-1 4,-2 4,-5 0,-9 -10,-16 -15,-23 -7,-11 -12,-22 -16,-34 -2,-7 -15,-5 -13,3 1,9 4,18 8,26 -12,-6 -26,-11 -40,-15 -5,-11 -9,-22 -10,-34 -1,-2 -1,-3 -2,-4 53,11 105,26 158,45 9,4 16,-9 7,-14z"/>
   <path class="fil1" d="M1037 1750c-7,-9 -14,-17 -21,-26 -6,-7 -17,0 -12,8 7,9 13,19 19,28 5,7 10,17 19,18 3,0 6,-1 7,-4 2,-10 -6,-17 -12,-24z"/>
   <path class="fil1" d="M795 1044c-32,79 -33,201 18,273 2,3 7,0 6,-4 -10,-44 -27,-85 -30,-131 -2,-47 6,-90 16,-135 1,-5 -8,-8 -10,-3z"/>
   <path class="fil1" d="M764 1058c-33,54 -52,147 -16,204 2,4 7,2 7,-2 -2,-31 -12,-60 -12,-91 1,-38 12,-74 26,-109 1,-3 -3,-5 -5,-2z"/>
   <path class="fil1" d="M709 1068c-11,26 -19,53 -23,81 -3,24 -8,54 1,77 2,4 8,4 9,-1 6,-23 1,-49 4,-73 4,-27 10,-54 18,-80 2,-6 -6,-10 -9,-4z"/>
   <path class="fil1" d="M672 1081c-14,14 -23,32 -27,51 -2,15 -4,38 8,49 3,3 7,1 8,-3 3,-14 -3,-29 -1,-43 3,-17 10,-33 20,-46 5,-6 -3,-13 -8,-8z"/>
   <path class="fil1" d="M628 1080c-8,9 -13,21 -18,32 -5,9 -13,21 -12,32 0,3 4,5 6,3 9,-6 13,-20 17,-30 5,-11 11,-23 13,-35 0,-3 -4,-5 -6,-2z"/>
   <path class="fil1" d="M1453 1594c-54,-1 -104,13 -158,6 -49,-5 -93,-21 -140,-34 -3,-1 -4,3 -1,5 75,46 218,69 300,30 4,-1 3,-7 -1,-7z"/>
   <path class="fil1" d="M1950 1499c-73,12 -143,42 -216,57 -73,15 -148,19 -221,35 -3,0 -2,6 1,6 76,7 157,-9 232,-24 68,-14 147,-27 208,-62 5,-3 2,-13 -4,-12z"/>
   <path class="fil1" d="M2455 1324c-74,26 -145,62 -219,90 -74,27 -150,50 -223,81 -3,1 -2,7 2,6 77,-15 153,-42 227,-70 74,-27 152,-53 221,-91 10,-5 2,-19 -8,-16z"/>
   <path class="fil1" d="M2427 1382c-59,16 -115,50 -173,72 -58,23 -118,42 -176,66 -4,1 -3,8 2,7 62,-11 122,-32 181,-54 56,-22 123,-43 172,-80 6,-4 1,-13 -6,-11z"/>
   <path class="fil1" d="M1912 1561c-56,10 -111,29 -168,40 -57,10 -116,13 -173,24 -2,0 -3,5 0,5 58,7 117,-2 174,-11 56,-9 118,-20 170,-44 7,-3 6,-16 -3,-14z"/>
   <path class="fil1" d="M1847 1638c-32,-1 -66,10 -97,17 -37,8 -74,16 -109,28 -4,1 -3,7 1,6 37,-2 74,-10 111,-18 32,-6 67,-10 96,-23 6,-3 4,-10 -2,-10z"/>
   <path class="fil1" d="M114 1590c-14,12 -13,37 -5,52 2,2 4,3 6,3 2,-1 4,-1 5,-3 2,-1 2,-4 1,-6 -2,-7 -4,-14 -4,-21 0,-7 3,-13 4,-20 1,-4 -4,-8 -7,-5z"/>
   <path class="fil1" d="M174 1602c2,-8 -9,-9 -11,-2 -4,12 -5,24 -3,37 2,9 5,21 15,25 1,0 3,-1 4,-3 1,-8 -5,-17 -7,-25 -2,-11 -1,-22 2,-32z"/>
   <path class="fil1" d="M218 1607c-7,14 -5,35 4,48 2,2 4,3 7,3 9,-1 6,-10 4,-16 -4,-10 -3,-20 -2,-31 0,-8 -9,-11 -13,-4z"/>
   <path class="fil1" d="M274 1599c-4,13 -3,29 6,39 4,5 14,4 13,-4 -2,-12 -5,-22 -5,-34 0,-9 -12,-8 -14,-1z"/>
   <path class="fil1" d="M356 1595c-9,12 -13,31 -3,43 4,6 16,4 14,-4 -2,-11 -4,-20 1,-31 5,-7 -7,-15 -12,-8z"/>
   <path class="fil1" d="M415 1593c-8,9 -11,31 1,39 4,3 11,1 11,-5 -1,-5 -3,-9 -3,-14 0,-4 1,-9 2,-13 2,-7 -5,-13 -11,-7z"/>
   <path class="fil1" d="M469 1571c0,9 0,18 3,27 3,6 12,6 13,-1 2,-9 0,-19 -1,-27 -1,-10 -16,-9 -15,1z"/>
   <path class="fil1" d="M167 1525c-7,2 -12,7 -17,12 -6,7 -12,13 -17,19 -5,5 3,12 8,7 10,-10 25,-21 30,-35 0,-2 -2,-4 -4,-3z"/>
   <path class="fil1" d="M207 1545c-5,0 -9,3 -13,7 -4,3 -8,7 -12,10 -6,5 0,15 7,10 4,-4 8,-7 13,-11 4,-3 8,-6 9,-11 0,-3 -2,-5 -4,-5z"/>
   <path class="fil1" d="M255 1540c-10,-1 -19,9 -24,16 -4,5 2,12 8,9 7,-5 18,-13 18,-22 0,-2 -1,-3 -2,-3z"/>
   <path class="fil1" d="M323 1534c-13,-2 -22,10 -25,22 -2,7 9,10 12,4 4,-8 10,-14 15,-22 1,-2 0,-4 -2,-4z"/>
   <path class="fil1" d="M396 1535c-6,0 -10,4 -14,8 -5,5 -9,10 -14,14 -5,5 3,14 8,9 5,-4 10,-8 14,-13 5,-3 9,-8 10,-13 1,-3 -1,-5 -4,-5z"/>
   <path class="fil1" d="M436 1525c-5,5 -10,10 -14,17 -5,7 6,14 11,6 3,-6 6,-12 8,-20 1,-2 -3,-5 -5,-3z"/>
   <path class="fil1" d="M513 1501c-8,3 -14,9 -20,15 -7,7 5,17 12,10 5,-6 11,-12 14,-19 1,-3 -2,-7 -6,-6z"/>
   <path class="fil1" d="M3045 282c-13,-15 -35,-24 -54,-32 -19,-8 -40,-16 -60,-16 -2,0 -2,1 -1,2 18,11 39,17 59,26 17,8 34,20 53,25 3,0 5,-3 3,-5z"/>
   <path class="fil1" d="M3047 242c-17,-12 -34,-24 -51,-36 -5,-2 -10,3 -6,7 17,13 34,27 52,40 14,10 28,23 45,28 2,1 4,-2 3,-4 -11,-15 -28,-25 -43,-35z"/>
   <path class="fil1" d="M3384 635c-9,-4 -18,-9 -28,-13 0,0 0,0 0,0 0,-5 1,-11 0,-16 0,-3 -4,-3 -6,-1 -9,17 -12,36 -17,54 -2,5 -3,9 -5,14 -2,-1 -3,-1 -5,-2 -8,-2 -10,10 -2,12 1,0 2,1 4,1 -5,13 -10,27 -15,40 -2,5 5,9 8,4 6,-14 12,-27 18,-41 3,1 6,2 10,3 -5,12 -10,24 -14,36 -2,6 6,10 8,4 6,-12 11,-24 17,-36 2,0 5,1 7,2 12,3 25,10 36,6 2,-1 3,-3 2,-5 -8,-9 -22,-11 -33,-14 -2,0 -5,-1 -7,-1 3,-10 7,-21 9,-31 0,-2 -3,-4 -5,-2 -6,9 -11,19 -15,30 -4,-1 -7,-2 -11,-3 2,-4 3,-8 5,-13 3,-9 6,-18 8,-28 9,4 17,8 25,12 9,4 17,9 26,9 3,0 5,-4 3,-6 -5,-8 -14,-11 -23,-15z"/>
   <path class="fil1" d="M1394 1767c-66,-11 -131,-9 -197,-24 -5,-1 -7,6 -2,8 62,17 135,35 199,23 4,0 5,-6 0,-7z"/>
   <path class="fil1" d="M1383 1746c-19,-5 -40,-2 -60,-4 -21,-3 -40,-7 -60,-13 -7,-1 -8,9 -2,11 35,10 87,25 123,12 2,-1 2,-5 -1,-6z"/>
   <path class="fil1" d="M1378 1726c-14,-5 -30,-5 -45,-7 -17,-3 -33,-6 -50,-11 -6,-1 -8,9 -2,11 29,9 67,22 96,14 3,-1 4,-6 1,-7z"/>
   <path class="fil1" d="M559 1545c-6,4 -7,12 -9,18 -3,8 -5,16 -8,24 -1,5 7,8 9,3 3,-8 6,-15 9,-23 3,-7 6,-13 4,-20 0,-2 -3,-3 -5,-2z"/>
   <path class="fil1" d="M621 1560c-9,7 -14,16 -19,26 -4,6 6,11 10,5 5,-9 11,-19 13,-29 0,-2 -3,-4 -4,-2z"/>
   <path class="fil1" d="M686 1557c-7,4 -12,12 -17,18 -4,6 5,14 9,8 5,-7 12,-14 14,-23 0,-3 -3,-5 -6,-3z"/>
   <path class="fil1" d="M735 1550c-9,0 -14,12 -17,19 -4,7 7,14 11,7 5,-6 13,-16 10,-23 -1,-2 -2,-3 -4,-3z"/>
   <path class="fil1" d="M787 1571c-5,1 -8,6 -10,10 -2,5 -5,10 -7,15 -4,7 7,12 10,6 3,-5 6,-10 8,-15 3,-5 5,-9 3,-14 0,-2 -2,-3 -4,-2z"/>
   <path class="fil1" d="M830 1589c-4,4 -7,9 -10,14 -4,7 8,14 13,8 3,-5 7,-9 9,-14 3,-8 -6,-14 -12,-8z"/>
   <path class="fil1" d="M898 1611c-5,6 -7,14 -9,22 -3,8 11,12 14,4 3,-7 6,-14 6,-22 0,-6 -8,-8 -11,-4z"/>
   <path class="fil1" d="M958 1619c-4,2 -7,5 -10,7 -8,6 0,18 8,12 4,-2 7,-4 10,-6 8,-6 0,-17 -8,-13z"/>
   <path class="fil1" d="M1018 1637c-11,1 -19,13 -24,22 -3,4 1,11 7,7 8,-5 20,-14 21,-25 0,-2 -1,-5 -4,-4z"/>
   <path class="fil1" d="M1057 1648c-8,1 -14,7 -20,11 -6,5 1,14 7,10 6,-5 13,-9 16,-16 1,-2 -1,-5 -3,-5z"/>
   <path class="fil1" d="M1099 1781c-6,-12 -9,-25 -13,-37 -3,-6 -13,-5 -12,2 2,15 6,29 13,42 5,11 9,23 20,28 3,2 6,0 6,-3 -1,-12 -9,-22 -14,-32z"/>
   <path class="fil1" d="M1107 1741c0,24 6,68 30,79 4,2 7,-2 6,-5 -2,-12 -12,-22 -17,-34 -5,-13 -7,-26 -7,-40 0,-8 -11,-7 -12,0z"/>
   <path class="fil1" d="M1174 1804c-7,-15 -11,-30 -14,-46 -1,-8 -12,-7 -11,1 2,25 9,70 35,83 2,1 5,-1 5,-3 -1,-13 -10,-24 -15,-35z"/>
   <path class="fil1" d="M1213 1820c-5,-14 -10,-28 -17,-41 -4,-7 -13,-4 -11,4 3,14 7,28 12,42 4,11 7,23 15,32 3,2 8,0 8,-3 1,-12 -3,-23 -7,-34z"/>
   <path class="fil1" d="M3337 891c-12,2 -18,14 -25,22 -10,12 -19,24 -27,37 -3,5 3,9 7,6 11,-11 21,-21 31,-33 8,-8 19,-17 18,-28 0,-2 -2,-4 -4,-4z"/>
   <path class="fil1" d="M3293 768c-11,7 -18,19 -25,30 -9,11 -17,23 -25,35 -3,5 4,11 8,6 9,-11 18,-23 28,-35 8,-10 16,-20 20,-32 0,-3 -4,-6 -6,-4z"/>
   <path class="fil1" d="M3306 816c-14,8 -24,26 -34,39 -5,6 4,14 9,8 11,-13 27,-26 31,-43 2,-3 -3,-5 -6,-4z"/>
   <path class="fil1" d="M3511 563c-31,-24 -85,-11 -115,4 -5,3 -3,10 2,9 19,-6 38,-10 58,-10 17,0 35,6 52,4 4,0 6,-5 3,-7z"/>
   <path class="fil1" d="M3533 511c-27,-18 -75,1 -100,15 -3,1 -1,5 2,4 17,-5 35,-9 53,-11 15,-1 31,3 44,-2 2,-1 3,-4 1,-6z"/>
   <path class="fil1" d="M3747 468c-21,12 -38,28 -61,36 -25,9 -52,11 -78,8 -6,0 -7,7 -2,9 48,14 122,0 145,-50 2,-2 -1,-5 -4,-3z"/>
   <path class="fil1" d="M3802 404c-3,6 -5,12 -9,17 -4,5 -9,9 -14,13 -5,5 -1,13 6,11 15,-4 30,-20 31,-36 0,-8 -11,-14 -14,-5z"/>
   <path class="fil1" d="M3726 445c-15,-1 -30,7 -45,11 -19,5 -38,5 -57,9 -4,1 -5,7 0,8 29,8 85,3 105,-22 2,-3 0,-6 -3,-6z"/>
   <path class="fil1" d="M3757 388c-4,3 -7,7 -10,10 -4,5 -8,8 -14,9 -7,2 -5,14 2,13 13,-2 34,-14 27,-30 -1,-2 -3,-3 -5,-2z"/>
  </g>
 </g>
</svg>
